<?xml version="1.0" standalone="no"?>
<!DOCTYPE svg PUBLIC "-//W3C//DTD SVG 20010904//EN"
 "http://www.w3.org/TR/2001/REC-SVG-20010904/DTD/svg10.dtd">
<svg version="1.0" xmlns="http://www.w3.org/2000/svg"
 width="1006.000000pt" height="1280.000000pt" viewBox="0 0 1006.000000 1280.000000"
 preserveAspectRatio="xMidYMid meet">
<metadata>
Created by potrace 1.15, written by Peter Selinger 2001-2017
</metadata>
<g transform="translate(0.000000,1280.000000) scale(0.100000,-0.100000)"
fill="#e91e63" stroke="none">
<path d="M4750 12748 c-228 -122 -506 -278 -634 -355 -77 -46 -165 -95 -196
-108 -143 -60 -473 -129 -793 -166 l-108 -12 6 -56 c22 -237 40 -588 55 -1084
6 -191 17 -409 25 -485 9 -75 18 -162 21 -193 l6 -56 -99 -61 c-251 -155 -430
-322 -630 -587 -126 -167 -331 -496 -313 -503 4 -2 180 31 391 73 l383 76 170
89 c93 49 171 88 172 87 1 -1 -4 -54 -11 -117 -8 -63 -24 -196 -35 -295 -11
-99 -38 -319 -59 -490 -22 -170 -45 -357 -51 -415 -16 -142 -103 -407 -193
-586 -19 -39 -39 -88 -43 -110 -4 -21 -28 -88 -54 -149 -26 -60 -55 -142 -65
-181 -18 -68 -18 -71 1 -110 10 -21 40 -55 66 -74 44 -32 48 -39 48 -76 0 -23
24 -159 54 -303 29 -144 51 -263 47 -265 -3 -2 -45 -7 -94 -11 -48 -4 -89 -10
-91 -14 -2 -3 68 -202 156 -441 87 -239 168 -464 179 -500 37 -125 52 -243 47
-388 -8 -227 -52 -327 -244 -547 -178 -205 -375 -419 -798 -868 -267 -283
-303 -318 -436 -416 -595 -439 -1266 -848 -1537 -936 -42 -14 -81 -31 -85 -38
-14 -22 -8 -72 16 -123 44 -95 125 -164 191 -164 38 0 242 82 665 268 477 209
571 249 655 277 75 26 97 18 54 -17 -41 -33 -255 -132 -459 -212 -107 -43
-298 -118 -425 -168 -274 -108 -458 -194 -504 -237 -41 -38 -36 -59 23 -118
58 -56 102 -67 246 -60 230 10 530 98 1076 315 183 73 199 78 189 62 -13 -22
-179 -93 -485 -210 -508 -194 -723 -283 -845 -352 -52 -29 -60 -38 -63 -66 -4
-40 32 -115 71 -148 25 -21 35 -23 90 -18 91 9 307 66 443 117 190 72 340 139
638 288 153 77 280 138 282 136 21 -21 -137 -135 -254 -182 -37 -15 -187 -85
-333 -156 -146 -70 -306 -144 -355 -164 -206 -84 -255 -123 -233 -182 16 -45
169 -98 314 -112 172 -15 263 11 625 177 107 49 265 117 350 152 85 34 261
112 390 172 290 136 305 143 410 180 l85 30 488 2 c268 1 487 0 487 -3 0 -9
-110 -206 -168 -301 -126 -204 -151 -229 -502 -497 -219 -167 -311 -249 -346
-309 -30 -51 -28 -80 6 -105 38 -28 144 -52 193 -44 54 9 126 48 168 91 26 27
30 36 20 48 -19 23 1 49 66 83 96 50 218 86 299 87 40 1 75 -2 79 -6 4 -3 -1
-18 -10 -31 -24 -38 -16 -77 22 -103 47 -31 142 -49 194 -36 l42 11 96 -86
c53 -47 122 -105 153 -128 119 -89 326 -177 503 -216 94 -21 299 -18 363 5 56
19 132 82 132 109 0 14 5 14 49 -1 60 -19 107 -5 117 35 5 19 11 23 28 19 138
-40 199 -50 316 -50 92 -1 140 4 180 16 64 20 130 73 133 106 1 16 6 21 17 17
8 -4 34 -11 57 -18 38 -10 46 -9 70 9 21 16 29 31 31 60 4 51 -35 111 -132
201 -94 87 -168 130 -305 177 -61 21 -111 42 -111 46 0 5 26 18 58 30 76 29
176 25 247 -10 28 -14 93 -66 145 -116 52 -50 105 -96 117 -103 26 -13 93 -14
126 -2 40 16 99 73 118 116 60 132 -30 240 -329 394 -194 99 -285 93 -545 -36
-84 -42 -174 -83 -202 -93 l-50 -17 -66 33 c-89 44 -173 59 -258 44 -63 -11
-66 -11 -84 12 -39 47 -69 121 -69 167 0 67 49 185 150 362 l88 153 164 47
c353 101 695 254 1003 451 120 76 221 150 250 183 101 115 340 454 462 655
250 412 393 824 421 1208 4 54 12 95 18 97 6 1 72 10 146 20 74 9 331 48 570
86 600 95 599 95 606 102 4 3 10 36 13 72 4 36 11 69 17 74 5 5 50 27 99 49
50 22 132 60 184 85 l93 45 60 108 c89 162 168 321 194 392 29 76 32 191 8
305 -15 75 -15 76 9 114 108 170 150 320 111 395 -35 67 -160 180 -279 251
l-59 36 -43 163 c-37 141 -42 177 -43 267 0 84 -3 102 -14 98 -8 -3 -17 -3
-20 0 -8 8 61 139 118 223 71 104 95 181 96 297 l0 93 -37 16 c-105 44 -234
59 -305 35 -71 -23 -160 -152 -261 -376 -30 -66 -57 -128 -60 -137 -6 -17 -30
-18 -312 -18 -270 0 -533 15 -620 35 -16 3 -24 18 -33 63 -7 33 -23 81 -37
106 -14 26 -25 49 -25 52 0 2 12 4 26 4 39 0 92 29 118 64 13 17 49 81 81 141
62 121 103 171 147 180 39 9 32 25 -22 53 -51 25 -106 28 -154 8 -49 -21 -178
-147 -210 -206 -25 -46 -28 -60 -24 -125 l3 -73 -60 66 c-71 77 -125 144 -125
155 0 4 6 7 14 7 8 0 38 22 68 48 81 73 109 92 134 92 31 0 30 15 -2 45 -27
25 -38 29 -84 26 -38 -3 -147 -59 -169 -87 -14 -18 -21 -21 -28 -12 -13 22 -5
143 17 229 11 45 20 93 20 106 0 20 -3 22 -19 13 -27 -14 -71 -108 -96 -202
l-21 -78 -69 47 c-37 27 -73 57 -79 68 -6 11 -12 22 -14 25 -8 11 -32 -36 -32
-63 0 -36 14 -63 54 -105 38 -42 76 -62 114 -62 25 0 32 -7 58 -62 16 -34 41
-79 57 -100 33 -46 33 -50 4 -39 -30 12 -129 -5 -176 -28 -40 -21 -61 -55 -61
-100 0 -39 9 -43 38 -21 21 17 40 20 132 20 92 0 111 3 132 20 l25 19 42 -58
c45 -64 101 -177 101 -202 0 -17 -42 -13 -501 52 l-166 23 -144 189 -143 189
-35 -75 -36 -75 -124 88 c-103 72 -127 94 -139 126 -28 70 -61 113 -214 276
l-151 160 16 107 c10 58 24 169 31 246 13 128 18 149 55 228 22 50 46 87 54
87 16 0 26 74 28 204 l1 81 18 -94 c11 -51 22 -96 25 -99 2 -3 69 -11 147 -19
185 -18 488 -12 573 11 79 22 290 107 516 207 156 69 187 80 218 74 93 -17
422 -102 561 -145 342 -107 581 -211 1203 -521 415 -208 445 -224 570 -320
l132 -101 17 88 c132 695 73 1027 -245 1386 -142 160 -426 385 -802 633 -305
201 -357 232 -580 345 -396 200 -817 360 -1503 571 -163 50 -301 93 -305 96
-5 3 180 131 410 285 l418 280 -115 -6 c-474 -24 -1127 -117 -1428 -202 -51
-15 -94 -25 -96 -23 -1 2 -202 283 -445 624 -244 341 -446 623 -450 627 -3 4
-49 -16 -101 -44z m4433 -6523 c39 -6 39 -7 20 -27 -18 -20 -111 -78 -125 -78
-5 0 -8 29 -8 64 l0 64 38 -8 c20 -4 54 -11 75 -15z m-258 -637 c-11 -6 -46
-31 -77 -55 -54 -41 -58 -43 -58 -21 0 37 15 50 72 69 63 20 92 24 63 7z m-20
-507 c-16 -14 -157 -72 -163 -66 -8 8 -1 12 83 44 92 34 92 34 80 22z m-4306
-3523 c-41 -82 -117 -204 -187 -302 -57 -78 -142 -156 -310 -285 l-83 -62 -21
48 c-36 81 -25 143 53 313 22 47 70 138 106 202 l66 117 61 6 c55 6 249 20
319 24 l27 1 -31 -62z m1059 -1098 c39 -23 72 -42 72 -44 0 -3 -182 45 -189
51 -7 5 21 33 33 33 6 0 44 -18 84 -40z m-860 -114 c50 -25 93 -49 96 -54 6
-10 -224 52 -272 74 -48 21 -31 38 33 31 34 -3 84 -21 143 -51z"/>
</g>
</svg>
